<svg id="Layer_1" data-name="Layer 1" xmlns="http://www.w3.org/2000/svg" viewBox="0 0 512 512"><defs><style>.cls-1{fill:#707070;}</style></defs><title>user-check-handdrawn</title><path class="cls-1" d="M43.2,502.5a43.08,43.08,0,0,1-6.33-6.07,44,44,0,0,1-8.45-15.78,44.85,44.85,0,0,1-1.5-7.31,42.91,42.91,0,0,1-.25-6.89l.53-11.21c.11-1.87.15-3.75.32-5.62l.82-5.57L30,432.94c3.31-14.53,7.64-28.62,13.94-40.62,2.42-4.85,5.35-10.36,5-9.31-1.23,3-2.37,6.44-3.74,10a95.88,95.88,0,0,0-3.85,11.56c-.48,1.77-1.48,4.77-3.08,9.29s-2.9,10.85-5.08,18.92l-2.33,14.8c-.8,4.94-.7,10-1.08,15l-.19,3.76-.09,1.9.1,2.4a40.75,40.75,0,0,0,11.27,26,40.89,40.89,0,0,0,16,10.45,42.11,42.11,0,0,0,9.41,2.19c1.56.14,3.3.21,4.72.25H103c34.18,0,66.93.91,53.54,1.62l-8.07.17-62,.65-9-.3-5.28-.16-1.53,0-2.13-.13a32.58,32.58,0,0,1-4.51-.56A43.56,43.56,0,0,1,38.28,496.5c-.08.14-2.57-2.37.21.92C43.29,502.79,45.71,504.12,43.2,502.5Zm223.15,5c13.83.1,21.73-.05,27.18-.37,5.69-.33,14.57-.66,24.84-.93,4.19-.11,19.3-.18,23.3-.11,13.31.25,26.65.28,39.38.24l9.42,0,4.6,0c1.55,0,2.87,0,4.91-.11a38,38,0,0,0,20-7,36.54,36.54,0,0,1-16.13,5.5,37,37,0,0,1-7.2,0l-6-.55-47.95,0c-22.24-.15-37,.12-55.06.26l-85.63.51-10.35.63c-1.33.12.23.28,3.08.39,8.82.33,25.13.62,27.17,1C226.18,507.57,250.07,507.35,266.35,507.47ZM217.27,369.9l12.8,7.71,4.39,2.83,11.18-6.2,25.52-16.07c1.24-.78,2.6-1.68,3.08-2,4.89-3.77-8.44,3.16-21.85,11.22l-17.93,10.74-37.77-22.87c-6.13-3.74-9.48-5.66-11-6.2-3.48-1.25-6.72-2.36-9.43-3.15-.45-.13,1.72,1.39,3.63,2.65,9.54,6.28,21,12.83,31.71,19.21,8.2,4.91,9.36,5.38,5.64,2.69C216.14,369.63,217.2,370,217.27,369.9Zm-88-130.75c-1.62-2.66-3.17-5.3-4.63-8C126.12,233.89,127.59,236.58,129.27,239.15Zm9.41-153.54c-1.07,2-.45.23-.6.18a67.84,67.84,0,0,1,4.28-7.59,40.09,40.09,0,0,1,3.86-5.81c2.08-2.57,3.74-4.78,5.38-6.6L156.35,61a105.36,105.36,0,0,1,37.46-26.44c2.23-.84,4.71-1.82,5.61-2.23,4.58-2.09,1.1-1.2-6.68,1.29a104.94,104.94,0,0,0-29.06,17,111,111,0,0,0-39,74.16,150.07,150.07,0,0,0-.18,22c.71,6.63,1.43,12.75,2.15,17.73.12.83.31-4,.41-8.18.27-10.3.1-22.24.79-31.82,1.23-10.06,3.24-20.31,7.13-29.59C141.27,80.92,142.66,79.31,138.67,85.61ZM239.75,21.93c4.25.31,7.79.74,8.54,1.15a36.43,36.43,0,0,0,4.88,1.12l4,.69,4.54,1.23a74.08,74.08,0,0,1,10,3A72.58,72.58,0,0,1,281.12,33l6.49,3.15,4.95,2.91c2.95,1.69,5.25,2.9,7,4.13l7,4.61L314.94,55l6.27,6.72c2.47,2.84,4.56,6,5.52,7.2a120.59,120.59,0,0,1,20.58,54.36l-.64-10.93-1.31-9.61a123.52,123.52,0,0,0-16.54-34.26c-10.37-14.39-19.62-22.18-31.55-30.08a114.44,114.44,0,0,0-64.47-18.11c-1.88.24-5.92.68-8.14,1-1,.17.21.27,2.45.27A89.79,89.79,0,0,1,239.75,21.93ZM200.3,275.14c9.43,2.45,12.17,2.51,9.59,1.52-1.28-.54-3.87-1.39-7.57-2.51l-6.16-2.52-3.64-1.44-3.83-2c-22.85-11-43.15-31.55-53-55.94-1.12-3.27-2.44-6.54-3.53-9.9-.83-3.44-1.84-6.85-2.58-10.29l-.52-2.29a107.62,107.62,0,0,0,9.83,31.77A116.17,116.17,0,0,0,158.18,249l3.15,2.72-3.39-2.47a105.39,105.39,0,0,0,30.27,21.19C191.79,272.5,197.37,274.06,200.3,275.14ZM409.63,451l-.75.17A7.67,7.67,0,0,0,409.63,451ZM338.3,297.1c-.33.26-.63.57-1,.84h0ZM485.2,394c-.18.79-.88,2.87-1.53,4.73a97.71,97.71,0,0,1-19.25,32.82,112.51,112.51,0,0,1-9.48,8.33,127.83,127.83,0,0,1-10.45,7.61c.1.12-1.09,1.07.55.2,5.34-3.15,4.3-1.71-7,4.79-2.79,1.47-5.71,2.78-8.68,4l.47,9.22A32.43,32.43,0,0,1,427.7,480a31.8,31.8,0,0,1-27.29,20c-3.7.26-4.39.2-3.38.41,3.9.62-17.42.69-32.25.85l-123.29.87-101.24.49-21.48,0L75,502.46a50,50,0,0,1-11.79-.94,34.13,34.13,0,0,1-11.41-5,34.65,34.65,0,0,1-14.23-20.49,31.18,31.18,0,0,1-.81-9.4l.55-7.39c.45-4.39.75-5.31,1.17-8l1.51-9.66a82.32,82.32,0,0,1,2.25-11.37A50.24,50.24,0,0,0,41,436.95c.62-4.3,2-8.29,2.85-12.25l1.47-5.82,2-5.5c1.33-3.6,2.52-7.17,3.91-10.6l4.75-9.89a73,73,0,0,1,5.26-9.43c1.93-3,3.69-6.21,5.8-9.21,4.48-5.79,8.72-12,14.34-17.65l1.55-2.25c3.19-3.8,7-7,11.17-10.8,4-4,9.22-7.48,15.22-12l-6.13,4.73c.57,0,3.83-2.11.53.61a185.28,185.28,0,0,0-19,17.42l-7.54,8.37a50.45,50.45,0,0,0-3.4,4.85c-.55.9-2.77,4-5.45,7.74-2.48,3.86-5.08,8.56-7.2,12.12-8.94,18.26-5.18,12.62-5.38,13.93,0,.47.62-.44,1.08-.82L59,395.93a75.57,75.57,0,0,1,5.68-10.09,99.84,99.84,0,0,0-6.56,12.69l-2.76,5.9c-.87,2-1.5,4.14-2.31,6.34l.25-1.62c-1.42,4-3.79,10-4.17,11.64-3.24,12.9-5.61,27.26-5.43,37.23-.06,6.64.45,2.73,1.11-5.56l2.51-14.84c1.14-5.49,2.93-11.2,4.24-16.59,8.67-26.65,24-52,45.42-70.92,2.2-1.93,4.25-4,6.57-5.82l7.1-5.29c4.6-3.78,10-6.5,15.26-9.77a156.17,156.17,0,0,0-43.51,36.32l.14.06c4.37-4.54,8.27-9.56,13.12-13.57l6.46-5.87c2-1.8,4.21-3.19,6.12-4.65,3.9-2.83,7.23-5.44,10.71-7.17,6.15-3.49,16.1-9.69,31.1-15l7-2.6,7.69-2c2-.52,4.12-1.07,6.19-1.58,0-2.37,0-5,0-8.08.11,3.07.15,4.34.12,3.49.32-.21.61-2,.81,0,.07.7.14,2.36.19,4.33l.56-.14,5.18-.8c0-4.54.06-9.11.09-13.92l.12,13.89.32,0c0-3.89.1-7,.32-9.78.14-1.75.21-4.17.24-7.1a195.33,195.33,0,0,0-29.35,6.51,43.15,43.15,0,0,1,5.53-2.14,41.45,41.45,0,0,0-5.65,1.81,188,188,0,0,0-43.85,20.32c-13.38,9.09-26,19.44-36.75,31.72l2.19-2.68a174.77,174.77,0,0,1,22.48-21.42c24.27-19.6,54.9-32.24,85.42-36.46v-.11c-.87-.34-1.63-.67-2.22-1-1.89-.72,1.71,1.25.63.93a38.18,38.18,0,0,1-7.91-3.21c-5.54-3.4-9.95-5.41-14.5-8.9-2.3-1.71-4.93-3.39-7.69-5.81s-5.93-5.25-9.42-9l-6.49-7.18a131.39,131.39,0,0,1-24.49-42.75,91.26,91.26,0,0,1-3.45-11.78c-.48-2-1.05-4-1.43-6l-.91-6.09-.88-6.1c-.21-2-.23-4.11-.35-6.17-.17-4.08-.43-8.44-.31-12,0-9.5.09-19.68.14-30,0-5.19.41-11.39.81-17,1-5.68,1.35-11.47,3-16.91a130.56,130.56,0,0,1,14.82-37,128.08,128.08,0,0,1,25-31A132.08,132.08,0,0,1,227.51.26c6-.55,12.91-.07,17.76.13A130.36,130.36,0,0,1,292.21,12.7a127.36,127.36,0,0,1,35.86,25.37c1.89,1.64,3.77,4,6,6.51A82.63,82.63,0,0,1,341,53a135.84,135.84,0,0,1,12.43,19.54L353,71.12c2.25,4.33,4,6.38,7,13.52a120.35,120.35,0,0,1,9.39,46.45c.07,11,0,26.64-.36,42.92-.18-1.49-.34-3-.67-4.52-.11,5.7-.52,11-.75,15-.55,4.07-1.14,7.23-1.56,9.67-.76,4.9-1.64,6.79-1.85,7.21-.53.81.45-4.48.1-5.54a128.89,128.89,0,0,1-18.93,47.66,137.18,137.18,0,0,1-25.7,29,150.42,150.42,0,0,1-17,11.87c0,.93,0,1.76.07,2.23.27,4.7.59,8.77.93,11.37a79,79,0,0,1,.39,9.85,168.93,168.93,0,0,1,18.4,5.78,88.26,88.26,0,0,1,14.86-15.64c2.45-1.69,4.77-3.49,7.3-5.09,16.84-11.26,37.78-15.78,57.79-13.46,2.63.44,5.42.71,7.89,1.3,10.12,2.47,12.7,4.11,11.8,3.23-1.81-1.38,9.36,2.48,16.23,7a87.4,87.4,0,0,1,41.9,81.92A98,98,0,0,1,473.82,400c-1.51,3.12-3.25,7.33-5.51,10.7C459.83,425,447.64,436,432.61,444.1c-2,1-6.83,3.24-8.12,3.41a29.7,29.7,0,0,1-4.37.79A86.21,86.21,0,0,1,409.63,451c.72-.2,1.49-.5,2.78-.9a82.34,82.34,0,0,1-25.11,2.42,81.38,81.38,0,0,1-23.54-4.77l-1.5-.16a56.45,56.45,0,0,1-7.78-3.27l-4.39-2.15-4.83-3,3.66,2.08c-.06-.41-1.7-1.74.38-.72.79.47,2.82,1.38,5.21,2.46l3.74,1.73,3.8,1.37a32.73,32.73,0,0,0,8.92,2.45c.59,0,2.56.6,5,.88l7.53.87c10.93.14,7.32-.59,8-1.07.24-.17-.35-.38-.63-.65-.66-.11-3.6-.14-8.81-.82a81.35,81.35,0,0,0,14.57.07l-.83.37a44.76,44.76,0,0,0,6.53-.52,74.27,74.27,0,0,0,19-5.91c6.28-3.08-7.92,2.5-19.53,3.55a81.62,81.62,0,0,1-43.41-6.77,62.15,62.15,0,0,1-8.11-4.33,58.63,58.63,0,0,1-7.75-5.42,80.76,80.76,0,0,0,26.32,13.38l0-.14c-3.1-1-6.2-2.18-9.19-3.47a63.67,63.67,0,0,1-13.12-7.7c-1.38-1.23-3.32-2.69-5.65-4.58-2.13-2.11-5-4.28-7.67-7.44a51.82,51.82,0,0,1-5.16-6.12,52.37,52.37,0,0,1-4.73-7,48.61,48.61,0,0,1-3.63-7,30.53,30.53,0,0,1-2.18-6c-.7-2.56.38-.59.64-.69a76.88,76.88,0,0,1-4.84-26.93A87.11,87.11,0,0,0,316.62,378l-.65-5.31c.61,3.93,1.09,6.38,1.48,8a30.29,30.29,0,0,0,1.25,3.21c.72,1.49,1.09,2.72,3.54,8.62A82.69,82.69,0,0,1,319,380.62c1.3,3.87,2.67,8.42,2.52,6-.29-1.79,2.66,5.18,4,7.27.59.82-.1-1.07.31-.65a11.32,11.32,0,0,1,2.38,3.45c3,5.54,4.95,7.78,10.91,15.6.56.64,2.11,2.48,3.15,3.43a75.31,75.31,0,0,0,42.07,20.08A68.72,68.72,0,0,0,416.52,432c12.17-4.33,22.67-12.42,30.79-22.36,9.17-11.65,15.08-26.12,15.52-41.1a49.65,49.65,0,0,0-.16-8.55,82.83,82.83,0,0,0-5.6-22.53,88.61,88.61,0,0,0-10.68-18.21,72,72,0,0,0-15.33-14l.5.52c-2.18-1-3.37-1.43-6.64-3.13a86.72,86.72,0,0,0-21.42-7.32c-5.25-1.38-14.29-1.64-22.55-.48l2.16-1.15c-11.84,1.65-15.12,3.39-15.67,3.11s1.86-1.44,2.23-2a73.69,73.69,0,0,0-23,12.41c-10.43,7.93-18.58,19.61-23.25,30l-2.09,5.59-1.81,6.89c-.69,4-1.63,7.38-1.77,11.14a37.71,37.71,0,0,1,.23-6.66c-1.41,7.78-1.53,12-1.86,4.47,0-1.74-.36.2-.52-.19s-.39-1.63-.09-4.61a56.15,56.15,0,0,1,3.52-15.52c1.24-4,3.24-8.17,4.34-11.17,1.36-2.87,1.94-4.59.94-3.43-2.76,3.65,2.16-8.82,15.34-20.08a82.74,82.74,0,0,1,24.48-14.28c1.93-.7,3.9-1.7,5.17-2.05l5.53-1.74c2.48-.63,5.52-1.07,8.72-1.67a80.14,80.14,0,0,1,18.86.13l5.54,1c6.6,2.15,6.52,1.8,16.08,5l-7.24-3.4-7-2.51a4.44,4.44,0,0,1-1.77-1,83,83,0,0,1,19,6.2c2,1.05,4.06,2,5.85,3.13,24.13,13.39,40.92,39.37,42.49,67.07l.23,3.36a.86.86,0,0,0,.09-.34,83.51,83.51,0,0,0-26.58-58.86c-4.83-4.79-10.63-8.5-16.48-12-3-1.59-5.51-2.7-7.49-3.72l-4.76-1.94c-2.24-1-2.67-1.37-1.73-1.43-3.6-1.15-6.92-1.77-10-2.49-3.14-.37-6.06-.91-9.05-1.12a94.51,94.51,0,0,0-12.47,0,81.06,81.06,0,0,0-48.92,20.1c-4.19,3.89-9.87,9.21-13.67,14.91a82.23,82.23,0,0,0-13.25,28.64,94.24,94.24,0,0,0-2.56,17.14c-.3,3.29-.58,4.12-.85,2.52-.39-2.34-.85-3.64-1.33-5.69.65-8.19,1.75-13.52.77-11.58a85.78,85.78,0,0,1,13.32-30.89,154.86,154.86,0,0,0-16.63-5.09c0,2.91,0,6.23-.06,9.34,0,5.1-.07,10.37-.24,13.28a24.14,24.14,0,0,1-2.91,1.4c-.79.28-3.77,1.88-7.19,3.74l-4,2.1-3.14,1.6c-1.17.58-1.87.81-1.41.39,1-.89,2.88-2.3,3.74-3l12.44-7.63c-.13-11.41-.25-21.72-.37-31.75-.08-5.2-.21-9.91-.26-15.15-.86.5-1.73,1-2.59,1.48.18,11.52.36,23.3.54,35.1,0,2.9,0,5.82.07,8.85l-18.8,11.46-16.51,10.21-8.41,5.1-20.56,12.15-10.07-6.1-8.28-4.89c-1.57-.91-5.23-3.29-6.06-3.93a21.21,21.21,0,0,1-2.7-2.51l-8.19-5,2.74,1.37L183.8,338l-12.57-7.72c0-2.51.07-5.19.1-8-4.4,1.09-9.56,2.52-16.45,4.55l-8.94,3.23a160.38,160.38,0,0,0-40.79,26.07,145.15,145.15,0,0,0-30.75,37.2l-2.08,3.34-1.75,3.6L67,407.66c-2.35,5-4,10.4-6,15.67-1.34,5.5-3,11-4.08,16.58l-1.27,8.42a49.28,49.28,0,0,0-.87,8.37l-.49,9.88a18.31,18.31,0,0,0,.07,3.61,20.06,20.06,0,0,0,.61,2.88A16.92,16.92,0,0,0,62,482.16a16,16,0,0,0,5.38,2.18,18.72,18.72,0,0,0,2.91.31c.32,0,1.34,0,2.23,0h2.68l21.53,0,99.93,0,19.09-.07c32.27-.43,74-.26,99.66.29l46.26.35-1.56-.19c5.26-.24,8-.6,16.33-.68l12.52-.08h6.36c1,0,2.36,0,3,0s1.15,0,1.71-.11a17,17,0,0,0,11.55-6.75,16.36,16.36,0,0,0,2.42-5,12.89,12.89,0,0,0,.55-3.23l.07-.87-.06-1.41-.14-3c-.05-.79-.07-1.61-.1-2.42a81.35,81.35,0,0,1-24.81,2.26c-3.09-.24-6.65-.63-6-.71,3.74-.58,8.23-.81,13-1.95,1-.21,2.8-.37,5.5-.61,2.67-.51,6.3-.85,10.92-1.86,22.17-4.59,42.57-18,56.08-36.3C481.73,405.76,486.44,385.72,485.2,394ZM372.28,437.2a52.4,52.4,0,0,1-5.06-2c-5.75-1.83-11.24-4.94-16.48-8.13-2.95-2.19-6-4.15-8.65-6.74a38.63,38.63,0,0,1-4.62-4.7l-.71-.49a75,75,0,0,0,33.52,21.68Zm101.93-56c-1.43,5.83-5,18.5-11.82,29.52l3.52-5.89,2.72-5.69.17-.25a91,91,0,0,1-4.38,8.79,62.1,62.1,0,0,0,3.81-7,26.84,26.84,0,0,0,1.93-4.33A85.32,85.32,0,0,0,474.21,381.2ZM273.88,340.29c-4.64,2.42-14.35,8.29-23.72,14.37l9.76-5.9.25-.1L253,353.17l9.5-5.53Zm20.32-51.36-.44.2.13,39-4.08,2.47-2.28,1.44c.12,0,.19,0,.29-.05l6.28-3.74Q294.15,308.61,294.2,288.93ZM162.66,36.3a78.29,78.29,0,0,1,9.11-6.05l4.34-2.65,4.47-2.18.46-.17-5,2.48-8.59,5.33a146.94,146.94,0,0,1,17.79-9.52c4-1.93,8-3.18,11.81-4.73,3.88-1.31,7.8-2.23,11.77-3.38C199.45,17,178.87,23.33,162.66,36.3Zm-23,225.85a130.73,130.73,0,0,1-34.28-68.46l-.74-3.8c.49,3.41.39,6.47,1.47,10.38,2.44,11.45,7,22.8,12.45,33.37a145.17,145.17,0,0,0,11.69,17.69,106.4,106.4,0,0,0,8.17,9.77Zm46.73,26.17c4.27,1.8.5.78.39,1,13.26,5.34,27.22,8.94,47.64,9.3l-12,.45c-3.88,0-7.71-.41-11.77-.64l9.8,1.63c-14.7-1.84-18.26-3.16-21.34-3.52s-5.43-.84-16.36-5l.13.07c4.05,1.76,7.66,3,11,4.3,3.55,1.29,7,2,10.82,3.11-3.81-.88-8-1.68-10.66-2.46s-3.79-1.05-1.72-.05c1.62.72-1,.06-4.64-1.07,0,4.6.07,9.18.1,13.7l0,9.77c0,2.31,0,1.72,0,1.82l-.05.14.06.11,0,.06s0,0,.08.07l1,.62c8.83,5.49,19,11.61,28.6,17.31l12,7.13,4.74,2.78.21.06.14-.12.08-.07,2.45-1.48,39.25-23.52,3.92-2.36.75-.46,0,0,0-.06,0-.12-.08-.1,0,0,0-2.69c0-3.66,0-7.34,0-10.93,0-4.51.14-8.71.26-12.6a125.58,125.58,0,0,1-16.67,5.07c-3.87,1.12-7.56,1.37-11.09,1.91l-5.28.69-5.35.21a87.47,87.47,0,0,0,12.67-1.87,76.66,76.66,0,0,1-15.37,1c-2.08-.11-.5-.42,6.48-1.07,3.19-.34-.46-.3.21-.54.89-.21,2.85-.86,8.21-1.85a82.41,82.41,0,0,0,10.74-2.47c2.27-.66,4.86-1.23,7.68-2.17l9.29-3.46c14.28-5.68,28.06-17.13,23.39-14.44-3.33,1.92-.53-.44,5.83-5.58,3.29-2.44,6.88-6.3,11.31-10.36a155.84,155.84,0,0,0,12.82-15.44,123.26,123.26,0,0,0,20-43.71,49.15,49.15,0,0,0,1.53-9.27,170.54,170.54,0,0,0,1.16-24.38c-.06-10.57-.13-22.25-.18-30.68-.1-3.36-.23-7.65-.28-9.32a66.3,66.3,0,0,0-1-12c-.37-3.49-1.44-7.53-3.81-15.6.8,4.4,2,8.72,2.42,13s1,8.32,1,12a7.7,7.7,0,0,1-.41,3.15c0-5.37-1.22-10.64-1.94-15.94-.44-2.64-1.27-5.2-1.89-7.8a60.11,60.11,0,0,0-2.25-7.68c-1.32-3.43-2.22-6.93-3.66-10a131.11,131.11,0,0,0-17.31-28.28c-7.23-8.36-15.1-16.3-24.28-22.54s-18.87-11.71-29.38-15.22c-5.13-2.13-10.6-3.15-15.93-4.6-2.71-.56-5.46-.87-8.19-1.31a54.19,54.19,0,0,0-8.24-.88L238,12.83a2,2,0,0,0,.53.13C273.82,14.05,308.3,31.22,330,59.13a130,130,0,0,1,16.73,27.77c1.91,5,3.47,9.15,4.52,12.53l1.9,8c.89,3.77.6,4.67.07,3.38a155.51,155.51,0,0,1,2.77,30.3c0,6.34.1,13,.15,19.63,1.74,30.8-6.35,58.71-21.77,81.17-5.07,7.7-13.64,16.79-21.93,23.94a123.76,123.76,0,0,1-45,23.57c-3.25.82-6.22,1.71-9,2.27l-7.67,1.17c-4.6.87-8.29.64-10.94.81-5.31.13-6.62,0-4.08-.52,3.7-.7,5.66-1.32,8.72-2.05A130,130,0,0,0,259,288.78c3.11-.94,4.28-1.45,2.68-1.3a119.5,119.5,0,0,0,72.35-50.72,16,16,0,0,1-1,1.66c2.41-3.77,4.93-7.45,7.07-11.45a119.36,119.36,0,0,0,13.22-43.64l.58-11.46,0-11.62V137c0-4.1-.39-8.27-.51-12.13-1.57-15.7-3.5-19.92-3.25-18.18s-1-1.8-2.43-7.08c-2-5.12-4.44-12.1-7.41-17.42A121.35,121.35,0,0,0,309.59,44a119.56,119.56,0,0,0-86.33-25.9,116.25,116.25,0,0,0-38.77,11,136.7,136.7,0,0,0-15.12,8.49,130,130,0,0,0-26.1,23.75,113.42,113.42,0,0,0-18,31.11L122.88,99c-.91,2.39-1.4,4.74-1.74,5.6-1.09,3.32-1.53,4-2.34,6-.48,2.33-.81,4.92-1.28,7.73l-.71,4.41-.28,4.84c0-1.51-.06-2.77.1-5.46-1.06,13.84-.41,26.22-.56,38.12s0,23.25,2.39,35.88l.9,2c1.07,3.82,1.72,7.79,3.45,12l2.46,6.78c1,2.36,2.29,4.83,3.57,7.56L126,218.89c-.13.46,1,3.41-.72.36a104.08,104.08,0,0,1-7-19.84,66.13,66.13,0,0,1-1.85-9c-.37-2.16-.65-3.6-1-4.76a42.17,42.17,0,0,1-.88-7.73c-.31-3.77-.58-8.2-.58-11.66-.41-16.94-1-11.37-1.47-12.43-.18-.37-.36.55-.62,1,0,1.06-.1,5.7-.23,14.08-.13-9.08-.22-15.37-.34-23.3l.32,1.35c0-3.58,0-9,0-10.45-.18-11.3.72-23.88,2.85-32.27,1.17-5.66,0-2.47-2,4.58-.87,3.55-1.54,8.16-2.41,13-.35,4.91-.77,10.27-.84,15.06,0,12.07-.16,24.15.05,36.5a127.94,127.94,0,0,0,6.29,37.19c1.79,4.86,3.4,9.8,5.86,14.46.91,2.09,2,4.11,3.09,6.13a124.74,124.74,0,0,1-13.77-38.82l-.14.06.62,4.17,1,4.09,2.1,8.16A178.18,178.18,0,0,0,124.63,233a109.52,109.52,0,0,0,18.26,25.09c2.77,3.33,6.58,6.19,10.1,9.52,3.73,3.09,7.79,6,11.71,8.78,4.16,2.42,8,5.14,11.8,7S183.61,287.08,186.44,288.32Zm-2.24,6.07-.19-.07-.23,27.6.16.53a8,8,0,0,0,.37-1.56c0-5.76,0-11.75,0-17.62C184.24,300.29,184.22,297.35,184.2,294.39Zm-6,26.41,0,2.76.14-.05,0-2.74Zm-5.91,1.3a41.46,41.46,0,0,0,.28,6.6,5.58,5.58,0,0,1,.07.81c1.67.81,6.51,3.56,9.36,5.1,8.16,4.42,5.83,2.38,6.59,2.24.27-.05-.07-.47-.15-.81l-6.49-4.16L193,338.15l-.8-.1,4.91,2.94c5.46,2.85,11.4,6,15.58,8,5.58,2.71-5.61-4.8-14.52-10.22l-20.33-12.26c0-1.88,0-3.78,0-5.67C176.1,321.22,174.25,321.63,172.27,322.11Zm-87.74,50c2.21-2.81,4.69-4.76,7.42-7.89,3.86-4.64,8.68-8.49,13.16-12.71,2.19-2.19,4.87-3.79,7.27-5.72s4.84-3.84,7.46-5.43l9.34-5.72c3.06-2,6.49-3.28,9.74-5,2-.93,3.92-1.92,5.94-2.8l6.21-2.19,1.51-.77C139.8,328,128,334.67,116.81,342c-5.36,4-10.93,7.82-15.73,12.54-5.19,4.3-9.56,9.41-14.12,14.35A24.43,24.43,0,0,0,84.53,372.07ZM173.6,497.41c-11.4-.31-36.18-.27-60.56.11l24.91,0,.58,0-18.58.15,24,.14Zm253.75-40.05c-.82.32-1.65.61-2.49.91.1,1.74.2,3.47.29,5.18a29.33,29.33,0,0,1-2.08,15.74,27,27,0,0,1-5.59,8,29.26,29.26,0,0,1-10.72,6.33,30.41,30.41,0,0,1-6.22,1.41c-2.43.26-6.36.23-11.18.36l7.78.34a31.22,31.22,0,0,0,7-.37,29.24,29.24,0,0,0,12-5.16,15.58,15.58,0,0,1,2.92-2,28.87,28.87,0,0,1-15.76,8.57c-5.91.92-12.49.34-18.72.5L372,497.06l-157.2.24-6.38.06a2.83,2.83,0,0,0,.63.11l125.46.14,38.59-.07,25.51.14c4.48,0,5.5-.33,3.95.4a30,30,0,0,0,24.72-23.42,38.18,38.18,0,0,0,.39-11.44C427.56,461.29,427.45,459.32,427.35,457.36Zm-.54-175.71a94.16,94.16,0,0,1,23.28,14.13c9.52,8.36,14.94,15,20.31,23.78,8.1,13.15,12.7,29.3,12.81,46.78.07,1.37.16,4.32.33,6,.08.78.29-.11.48-1.76.9-5.09.42-14.64.61-15.86a45.71,45.71,0,0,0-1.25-10.34c-.62-2.44-1.22-5.13-2-7.73l-2.64-7.36c-1.59-3.76-3.09-6.63-4.27-8.93-1.39-2.19-2.52-3.82-3.49-5.1a54.88,54.88,0,0,0-3.95-4.91,77.12,77.12,0,0,0-5.5-6.17c-.88-.85-2.74-3-4.74-4.91l-5-4.55c-11.48-10.57-26.39-16.8-38.64-19.62a77.53,77.53,0,0,1,7.47,3.13ZM318.61,428a103.12,103.12,0,0,1-15.52-25.42c-1.09-3.1-2.9-7.38-3.65-9.79-2.3-7.52-3.13-9.64-3-7.36a73.94,73.94,0,0,0,4.78,18.42c7.95,19.93,24.17,37.77,43.62,48.41l8,3.88c2.76,1.15,5.62,2.11,8.41,3.14a17.6,17.6,0,0,0,1.94.45,103,103,0,0,1-24.79-12.64,99.68,99.68,0,0,1-20.05-18.86,24.39,24.39,0,0,1-2.23-2.53A24.41,24.41,0,0,0,318.61,428Zm31.54-54,1.54.62c-1.31-1.42-1.84-2.34-.09-1.7.4.15.17-.31.35-.4.47-.23,1.41-.14,4.45,2,1.58,1.14,4,1.69,3.8.87-.34-1.19,2.36,0,5.36,2.37l5,3.85a3.72,3.72,0,0,0,1.16.52c.86.13,5.23,3,7.28,4.66a11.52,11.52,0,0,1,1.16,1.05,8,8,0,0,0,3.58,2.83c-1.14-1.46-2.19-2.81-3-4-.3-.45-.18-.62-.25-.91l3.71,2.86c.42.34.85.85,1.25,1.15l2,1.48,9.38-14.18.36-.63c-.05,0-.11,0-.13,0l-8.55,12.31-1.17,1.76-2-1.49c-2.45-1.85-3.11-2.6-2.74-3.25l-3.38-2.16c-.72-.47-1.48-1-2.23-1.53-3.48-2.6-6.5-4.54-9.66-6.5-1.06-.65-2.35-1.7-3.54-2.56l-5.55-4c-2.93-2.07-3.88-3.13-2.91-3.26a12.82,12.82,0,0,0,1.93-.55c1.4,1,2.46,1.49,2.42.82l10,7.43-.27-.09c.45.43.86.89,1.36,1.27l9.46,7.29,1.17.89c1.51,1.28,2,1.59,1.8,1.05-.25-1,1.34.16,2.38.77l.9.53c1.71-3.12,3.45-6,5.08-8.79l1.16-1.92,1.57-2.46c1-1.64,2.06-3.27,3-4.86.34-.62.88-1.36,1.34-2,1.87-2.78,4-5.22,5.76-8.21a6.35,6.35,0,0,1,1.21-1.34,2.83,2.83,0,0,1,1.13-.31l1.44-1.9-.23.76c1-1.64,1.87-3.07,2.8-4.4s1.92-2.55,3-4l-.13-.46,2.24-3.19-.38.78c.29.14.77-.06.67.45a13.52,13.52,0,0,1-1.38,2.56c-.61.94-.89,1.34-.84,1.76a14.33,14.33,0,0,1-1.07,2.48c-1,2.13-.07,1.82.27,2.22.12.14.34.14.59.23l1.27-1.45-1.5,2.8-.16-.33a13.36,13.36,0,0,0-.79,1.17c-.55,1.46-1.2,3-1.5,4.22-.41,1.57,2-.8,3.53-2.9l5.61-8.16c.77-1.12,1.53-2.25,2.42-3.38L419,350.26l.12.08,1.3-1.78a11.48,11.48,0,0,1,2.19-2.65,14.32,14.32,0,0,0,2.48-3.21c1.22-1.89,2.73-4.61,4.11-5.6.52-.37.52.23.75.39l3.54-5.21c0,1.3,0,2.43,0,3.67l.82-1c-1.94,3.21-.15,2.18-1.62,4.9l1.94-2.28c-.32,1-.8,2-.1,1.83.54-.17-.12,1.62-.11,2.37,0,.3.46,0,.53.22a1.27,1.27,0,0,1-.06,1.21c-.81,1.37-.64,2.38-2.47,4.17a6.62,6.62,0,0,0-.68,1,93.88,93.88,0,0,1-6.85,9.89c-1.58,2-3.23,4.48-4.76,6.77l-5.28,8.2-6.39,9.36a21.19,21.19,0,0,0-1.16,1.83c-.09.22-.81,1.37-1.26,2.09l-1.6,2.49-3.39,5c-2.28,3.25-4.51,6.21-6.22,8.24-1.15,1.36-3,3.94-4.63,6.28l-1.7-1.38.31.47a8.82,8.82,0,0,1-2.8-1.29,93.35,93.35,0,0,1-9.1-7.23c-2.1-1.91-5.57-4.62-8.76-7.25h1.32a24,24,0,0,1-3.25-2.78c-.42-.46-.53-.72-.48-.88.11-.32.87-.23,1.19-.43-1.86-1.33-3.59-2.49-5.2-3.75a61.25,61.25,0,0,1-7.15-6c-.42-.46-1.75-1.32-2.5-2S350.79,374.67,350.15,374Zm73.34-20.17a4.67,4.67,0,0,0,1-.87l2.47-3.71,1.43-2.24c.29-.44.65-.84,1-1.26l-.05-.28-5.72,7.87Zm-24.1,19.4a22.75,22.75,0,0,0,3.77-5.74l-1.55,2.36-.08,0,1.06-1.83c-.86,1.12-1.41,1.74-1.65,2.17C400.34,371.28,399.89,372.25,399.38,373.25Zm-6.5-16.38-3.41,6.18a3.87,3.87,0,0,0-.38.85c-.26,1.66,2.58-.9,4.75-4.11,2.39-3.54,4.89-7,7.37-10.49,1-1.44,1.51-2.28,1.48-2.77a22.33,22.33,0,0,0-.43-3.2c0-.16-.56.27-1,.69-2,2.07-3.57,5-5.29,7.5-1.32,2-1.34,2.32-.38,1.61.29-.21.29.12.42.21a22.8,22.8,0,0,1-1.36,2A21.58,21.58,0,0,1,392.88,356.87Zm-5.82,16.61a1.59,1.59,0,0,0-.45,1.32,7.44,7.44,0,0,1-.27,2,3.31,3.31,0,0,1-.65,1.14,1.73,1.73,0,0,0-.34.23,15.26,15.26,0,0,0-2.64-2l.47,1.65.56,1.8c.64.47,1.39.94,2.08,1.5l.36-.47a17.55,17.55,0,0,0,2-3.36l1.36-2.46c.46-.81.79-1.43,1.86-3.17a7.91,7.91,0,0,0,.14-1.32c0-.19-.24-.14-.51.07-.79.57-2.22,2.16-2.42,1.85C387.91,372.06,387.53,373,387.07,373.48Zm24.32-41.58c0,.2,0,.41,0,.76l3.32-4.48a10.4,10.4,0,0,0,1-1.71c1.15-2.76-.41-2.26-2.84.52-2.58,3-4.74,6.53-7.09,9.79l-1.83,2.68-.06.4,7.25-7.4Z"/></svg>